<svg viewBox="0 0 115 115" fill="none" xmlns="http://www.w3.org/2000/svg">
<mask id="mask0_59_236" style="mask-type:luminance" maskUnits="userSpaceOnUse" x="0" y="0" width="115" height="115">
<path d="M0 0H115V115H0V0Z" fill="white"/>
</mask>
<g mask="url(#mask0_59_236)">
<path d="M96.25 96.25C91.2162 101.284 85.3567 105.235 78.8302 107.995C72.0769 110.852 64.9004 112.3 57.5009 112.3C50.1015 112.3 42.9249 110.852 36.1717 107.995C29.6452 105.235 23.7838 101.284 18.7519 96.25C13.7181 91.2162 9.7652 85.3548 7.00457 78.8302C4.14946 72.0769 2.70017 64.9004 2.70017 57.5009C2.70017 50.1015 4.14946 42.9249 7.00457 36.1717C9.7652 29.6452 13.7181 23.7838 18.7519 18.75C23.7838 13.7181 29.6452 9.7652 36.1717 7.00457C42.9249 4.14946 50.1015 2.70017 57.5009 2.70017C64.9004 2.70017 72.0769 4.14946 78.8302 7.00457C85.3567 9.7652 91.2162 13.7181 96.25 18.75C101.284 23.7838 105.235 29.6452 107.995 36.1717C110.852 42.9249 112.3 50.1015 112.3 57.5009C112.3 64.9004 110.852 72.0769 107.995 78.8302C105.235 85.3548 101.284 91.2162 96.25 96.25ZM57.5009 0C25.7433 0 0 25.7433 0 57.5009C0 89.2568 25.7433 115 57.5009 115C89.2568 115 115 89.2568 115 57.5009C115 25.7433 89.2568 0 57.5009 0Z" fill="white"/>
<path d="M92.2268 75.1781C90.9192 71.6447 78.5842 62.7147 74.8977 62.52C74.7938 62.5162 74.6917 62.5125 74.5935 62.5125C71.9576 62.5125 70.4932 64.3661 69.2517 66.2047C67.7665 68.3984 66.0395 69.2657 64.1348 69.2657C62.9066 69.2657 61.6047 68.9048 60.248 68.3039C52.4215 64.8366 47.0363 58.9072 43.5349 51.2205C42.2632 48.4315 42.3861 45.7635 45.2676 43.8513C50.4034 40.4463 50.1465 36.2874 46.9437 31.7411C45.3394 29.4642 43.7673 27.1495 42.0176 24.9841C40.0676 22.5711 38.3859 19.6348 35.0962 19.6348V22.333C36.4283 22.333 37.3145 23.3099 39.0227 25.5358C39.3099 25.91 39.6084 26.2973 39.9183 26.6809C41.3071 28.4004 42.6279 30.2881 43.9053 32.1096C44.1811 32.5064 44.4589 32.9032 44.7367 33.2962C46.1538 35.3067 46.7472 36.9903 46.5015 38.2979C46.288 39.4335 45.3716 40.5445 43.7768 41.6008C40.0714 44.0591 39.0869 47.9724 41.0766 52.341C45.0277 61.0065 51.1082 67.208 59.154 70.7736C60.9698 71.5748 62.5967 71.9659 64.1348 71.9659C67.1052 71.9659 69.5786 70.5374 71.4889 67.7182C72.7701 65.8211 73.524 65.2126 74.5935 65.2126C74.6464 65.2126 74.6993 65.2145 74.7541 65.2164C75.5836 65.2807 78.7392 66.7772 82.8754 69.7854C87.4594 73.1242 89.4491 75.4918 89.6948 76.1154C90.0009 76.943 89.9952 77.7744 89.6759 78.7286C87.9847 83.7888 84.6931 86.5759 80.4076 86.5759C78.8941 86.5759 77.2729 86.2282 75.5912 85.548C64.0573 80.8732 54.0068 74.3014 45.7192 66.0119C37.5923 57.885 30.9203 47.8666 25.8884 36.242C25.5615 35.4824 25.3593 34.5811 25.1949 33.8574C25.1571 33.6892 25.1212 33.523 25.0834 33.368C25.2327 29.383 29.3519 24.1451 33.5921 22.6354C34.1552 22.4351 34.6616 22.333 35.0962 22.333V19.6348C34.3763 19.6348 33.5789 19.7746 32.687 20.092C27.5172 21.9325 22.3153 28.2795 22.3795 33.6892C22.5892 34.4507 22.8254 35.9548 23.4093 37.3096C33.6847 61.0518 50.479 78.2846 74.5765 88.0498C76.6172 88.8774 78.5748 89.2742 80.4076 89.2742C85.8363 89.2742 90.1653 85.7842 92.2362 79.5846C92.7351 78.0956 92.7672 76.6388 92.2268 75.1781Z" fill="white"/>
</g>
</svg>
