<svg viewBox="0 0 114 113" fill="none" xmlns="http://www.w3.org/2000/svg">
<path d="M57 2.37143C87.16 2.37143 111.629 26.8286 111.629 57C111.629 82.4514 94.1886 103.789 70.6343 109.857C70.6229 109.731 70.5657 109.64 70.5657 109.514V94.3143C70.5657 89.8343 69.3086 86.4743 66.8286 84.2343C69.56 83.9829 72.0171 83.5714 74.1657 82.9886C76.3257 82.4971 78.5771 81.5371 80.8857 80.12C83.1257 78.9543 85.0343 77.3886 86.6114 75.4C88.1086 73.6514 89.3543 71.1714 90.3486 67.9371C91.3543 64.9543 91.8457 61.3771 91.8457 57.24C91.8457 51.5943 89.9829 46.7486 86.2571 42.68C87.9943 38.44 87.7886 33.5943 85.6286 28.12C85.2514 28.0286 84.8286 27.9829 84.3486 27.9829C83.16 27.9829 81.6743 28.28 79.9029 28.8629C77.4114 29.9486 75.2057 30.9771 73.2971 31.9829L70.68 33.8457C66.4743 32.6114 62.1657 31.9829 57.8 31.9829C57.5257 31.9829 57.2629 31.9829 56.9886 31.9943C56.7143 31.9943 56.4514 31.9829 56.1771 31.9829C51.7429 31.9829 47.4457 32.6114 43.3086 33.8571C42.5543 33.2743 41.56 32.6571 40.3143 31.9943C39.0686 31.1714 37.08 30.2571 34.3486 29.2514C32.4857 28.44 30.9314 28.0286 29.6857 28.0286C29.1486 28.0286 28.68 28.1086 28.2571 28.2571C26.1771 33.56 26.0057 38.4171 27.7543 42.8171C24.0171 46.7143 22.1543 51.5714 22.1543 57.3771C22.1543 61.3543 22.6571 64.9314 23.6514 68.0971C24.5657 71.08 25.8114 73.56 27.3886 75.5486C28.8743 77.3771 30.7943 78.9543 33.1143 80.28C35.3543 81.5257 37.5486 82.4743 39.7086 83.1371C41.8686 83.5486 44.3143 83.9714 47.0457 84.3943C45.1371 85.96 43.9829 88.4171 43.56 91.7314C42.5657 92.0629 41.48 92.3943 40.3257 92.7257C39.16 92.8857 37.8457 93.0229 36.3486 93.1029C34.7714 93.0229 33.1943 92.52 31.6171 91.6057C30.1314 90.5314 28.7943 89.0343 27.64 87.1257C26.8057 85.5486 25.6971 84.3143 24.28 83.4C22.8629 82.4057 21.6629 81.8571 20.6686 81.7771L19.3086 81.4C18.3143 81.48 17.6057 81.6057 17.1943 81.7771C16.8629 82.0286 16.7829 82.28 16.9543 82.52C17.0343 82.9314 17.24 83.2629 17.5714 83.5143C17.8229 83.9371 18.1086 84.2229 18.44 84.3829L18.9429 84.8743C20.0171 85.2971 21.0571 86.2 22.0514 87.6171C23.0457 88.8629 23.7886 90.0629 24.2914 91.2171L25.0343 92.7143C25.6171 94.6229 26.6571 96.0743 28.1543 97.0686C29.6514 98.2343 31.2286 98.9429 32.8857 99.1829C34.3371 99.5371 35.7314 99.7086 37.08 99.7086C37.3429 99.7086 37.6057 99.6971 37.8686 99.6857C38.2571 99.7086 38.6343 99.72 38.9886 99.72C40.0857 99.72 41.0343 99.6286 41.8457 99.4343L43.4686 99.3086C43.4686 101.046 43.4686 103.171 43.4686 105.663C43.4686 107.983 43.4686 109.263 43.4686 109.503C43.4686 109.617 43.4114 109.72 43.4 109.846C19.8114 103.789 2.37143 82.4514 2.37143 57C2.37143 26.8171 26.8171 2.37143 57 2.37143ZM57 1C26.12 1 1 26.12 1 57C1 82.5314 18.28 104.806 43.0343 111.171L44.5429 111.56L44.7257 110.063C44.76 109.937 44.8057 109.743 44.8057 109.503V105.663V99.3086V97.8343L43.3314 97.9486L41.7086 98.0743L41.6057 98.0857L41.5029 98.1086C40.8057 98.2686 39.9486 98.36 38.9543 98.36C38.6229 98.36 38.2686 98.3486 37.9029 98.3371H37.8343H37.7657C37.5257 98.3486 37.2857 98.36 37.0457 98.36C35.8 98.36 34.4971 98.2 33.1829 97.8686L33.1143 97.8571L33.0457 97.8457C31.64 97.64 30.2571 97.0229 28.9543 96.0057L28.92 95.9714L28.8743 95.9486C27.64 95.1257 26.7943 93.9371 26.3029 92.3257L26.2686 92.2114L26.2229 92.1086L25.4914 90.6457C24.9543 89.4 24.1429 88.1086 23.1029 86.7943C22.04 85.2857 20.9086 84.28 19.6743 83.72L19.3657 83.4114L19.1943 83.24L18.9771 83.1371C18.9771 83.1371 18.8743 83.08 18.7143 82.8171C18.84 82.8057 18.9886 82.7829 19.1486 82.7714L20.28 83.08L20.4057 83.1143L20.5314 83.1257C21.0343 83.1714 21.9486 83.4343 23.4686 84.4971L23.4914 84.5086L23.5143 84.52C24.7371 85.3086 25.6857 86.36 26.4057 87.7314L26.4286 87.7657L26.4514 87.8C27.7086 89.8571 29.1714 91.4914 30.7943 92.6686L30.8514 92.7029L30.9086 92.7371C32.6686 93.7543 34.4629 94.3257 36.2571 94.4171H36.3371H36.4057C37.88 94.3371 39.2514 94.2 40.4971 94.0286L40.5886 94.0171L40.68 93.9943C41.7429 93.6857 42.8171 93.3543 43.96 92.9771L44.7829 92.7029L44.8857 91.8457C45.2629 88.8971 46.2686 86.7257 47.88 85.4L50.2457 83.4571L47.2286 82.9886C44.6229 82.5886 42.2 82.1771 40.0171 81.7543C37.9714 81.1143 35.8571 80.2 33.7543 79.0229C31.5829 77.7886 29.7886 76.3029 28.4286 74.6229C26.9771 72.7943 25.8 70.44 24.9429 67.6286C23.9943 64.6 23.5029 61.1257 23.5029 57.3086C23.5029 51.8914 25.2629 47.3086 28.7257 43.6971L29.3314 43.0686L29.0114 42.2571C27.48 38.3943 27.56 34.0629 29.2629 29.3657C29.3886 29.3543 29.5257 29.3429 29.6743 29.3429C30.7257 29.3429 32.1086 29.72 33.8 30.4514L33.8343 30.4629L33.88 30.4743C36.4971 31.4343 38.4057 32.3029 39.56 33.0686L39.6171 33.1029L39.6743 33.1371C40.8514 33.7657 41.7886 34.3486 42.4743 34.8743L43.0343 35.3086L43.7086 35.1029C47.7086 33.8914 51.9143 33.2857 56.1886 33.2857C56.4514 33.2857 56.7143 33.2857 56.9771 33.2971H57H57.0229C57.2857 33.2971 57.5486 33.2857 57.8114 33.2857C62.0286 33.2857 66.2343 33.8914 70.3029 35.0914L70.9429 35.2743L71.48 34.8857L74.0171 33.08C75.8229 32.1429 77.9714 31.1257 80.3943 30.0743C81.9943 29.5486 83.32 29.2743 84.3486 29.2743C84.44 29.2743 84.5429 29.2743 84.6343 29.2857C86.3829 34.1086 86.4971 38.4171 84.9886 42.0971L84.6571 42.8971L85.24 43.5371C88.76 47.3657 90.4743 51.8229 90.4743 57.1714C90.4743 61.1829 89.9943 64.6343 89.0457 67.4343L89.0343 67.4457V67.4686C88.1086 70.4971 86.9429 72.8514 85.5714 74.4514L85.5486 74.4743L85.5371 74.4971C84.1086 76.3143 82.3257 77.7771 80.2571 78.8514L80.2114 78.8743L80.1657 78.8971C77.9943 80.2229 75.8686 81.1371 73.8457 81.5943L73.8229 81.6057L73.8 81.6171C71.7429 82.1771 69.3657 82.5771 66.7029 82.8171L63.5943 83.1029L65.9029 85.1943C68.0857 87.1714 69.1943 90.2229 69.1943 94.2686V109.457C69.1943 109.709 69.24 109.903 69.2743 110.006L69.4457 111.514L70.9771 111.126C95.72 104.806 113 82.5314 113 57C113 26.12 87.88 1 57 1Z" fill="white" stroke="white" stroke-width="2"/>
</svg>
