<svg viewBox="0 0 480 169" fill="none" xmlns="http://www.w3.org/2000/svg">
<path d="M49.6586 58.616H37.2746L25.7546 35.288H13.2746V58.616H2.13863V11.96V5.816V0.727995H31.8026C31.8026 0.727995 48.6986 1.112 48.6986 18.008C48.6986 28.28 42.4586 32.408 37.5626 34.136L49.6586 58.616ZM13.2746 11.96V24.056H30.1706C30.1706 24.056 37.4666 24.152 37.4666 18.008C37.4666 11.864 30.1706 11.96 30.1706 11.96H13.2746ZM87.4991 0.727995H106.987L125.035 58.616H112.171L97.1951 11.672L82.2191 58.616H69.4511L87.4991 0.727995ZM146.795 24.056H174.827C174.827 24.056 182.123 24.152 182.123 18.008C182.123 11.864 174.827 11.96 174.827 11.96H146.795V0.727995H176.459C176.459 0.727995 193.355 1.112 193.355 18.008C193.355 34.904 176.459 35.288 176.459 35.288H157.931V58.616H146.795V24.056ZM226.181 58.616H215.045V35.288V24.056V0.727995H226.181V24.056H252.677V0.727995H263.909V58.616H252.677V35.288H226.181V58.616ZM303.687 0.727995H323.175L341.223 58.616H328.359L313.383 11.672L298.407 58.616H285.639L303.687 0.727995ZM362.982 24.056H408.006V35.288H362.982V24.056ZM362.982 47.384H408.006V58.616H362.982V47.384ZM362.982 0.727995H408.006V11.96H362.982V0.727995ZM434.514 58.616V47.384V0.727995H445.65V47.384H479.538V58.616H445.65H434.514ZM47.9243 168.616H35.5403L24.0203 145.288H11.5403V168.616H0.404251V121.96V115.816V110.728H30.0683C30.0683 110.728 46.9643 111.112 46.9643 128.008C46.9643 138.28 40.7243 142.408 35.8283 144.136L47.9243 168.616ZM11.5403 121.96V134.056H28.4363C28.4363 134.056 35.7323 134.152 35.7323 128.008C35.7323 121.864 28.4363 121.96 28.4363 121.96H11.5403ZM136.878 121.96C136.878 121.96 121.23 122.92 121.23 139.624C121.23 156.424 136.878 157.384 136.878 157.384H145.23C145.23 157.384 160.878 156.424 160.878 139.624C160.878 122.92 145.23 121.96 145.23 121.96H136.878ZM136.398 110.728H145.71C145.71 110.728 172.11 111.592 172.11 139.624C172.11 167.752 145.71 168.616 145.71 168.616H136.398C136.398 168.616 109.998 167.752 109.998 139.624C109.998 111.592 136.398 110.728 136.398 110.728ZM249.144 110.728H280.344V121.96H250.776C250.776 121.96 243.48 121.864 243.48 128.008C243.48 134.152 250.776 134.056 250.776 134.056H265.56C265.56 134.056 282.456 134.44 282.456 151.336C282.456 168.232 265.56 168.616 265.56 168.616H234.36V157.384H263.928C263.928 157.384 271.224 157.48 271.224 151.336C271.224 145.192 263.928 145.288 263.928 145.288H249.144C249.144 145.288 232.248 144.904 232.248 128.008C232.248 111.112 249.144 110.728 249.144 110.728ZM364.269 110.728H395.469V121.96H365.901C365.901 121.96 358.605 121.864 358.605 128.008C358.605 134.152 365.901 134.056 365.901 134.056H380.685C380.685 134.056 397.581 134.44 397.581 151.336C397.581 168.232 380.685 168.616 380.685 168.616H349.485V157.384H379.053C379.053 157.384 386.349 157.48 386.349 151.336C386.349 145.192 379.053 145.288 379.053 145.288H364.269C364.269 145.288 347.373 144.904 347.373 128.008C347.373 111.112 364.269 110.728 364.269 110.728ZM473.634 168.616H462.498V110.728H473.634V168.616Z" fill="currentColor"/>
</svg>
